<?xml version='1.0' encoding='utf-8'?>
<svg xmlns="http://www.w3.org/2000/svg" clip-rule="evenodd" fill-rule="evenodd" image-rendering="optimizeQuality" shape-rendering="geometricPrecision" text-rendering="geometricPrecision" viewBox="0 0 600 400"> <defs> <style type="text/css">.fil0 {fill:white} .fil4 {fill:url(#d);fill-rule:nonzero} .fil3 {fill:url(#c);fill-rule:nonzero} .fil1 {fill:url(#b);fill-rule:nonzero} .fil2 {fill:url(#a);fill-rule:nonzero}</style> <linearGradient id="d" x1="312.8" x2="312.8" y1="302.99" y2="204.52" gradientUnits="userSpaceOnUse"> <stop stop-color="#900" offset="0"/> <stop stop-color="red" offset=".18824"/> <stop stop-color="red" offset=".47843"/> <stop stop-color="#5C0909" offset="1"/> </linearGradient> <linearGradient id="c" x1="223.77" x2="305.4" y1="212.8" y2="212.8" gradientUnits="userSpaceOnUse"> <stop stop-color="#369" offset="0"/> <stop stop-color="#00BDF7" offset=".18824"/> <stop stop-color="#00BDF7" offset=".47843"/> <stop stop-color="#32296C" offset="1"/> </linearGradient> <linearGradient id="b" x1="407.92" x2="304.06" y1="163.92" y2="163.92" gradientUnits="userSpaceOnUse"> <stop stop-color="#063" offset="0"/> <stop stop-color="#9c3" offset=".18824"/> <stop stop-color="#9c3" offset=".47843"/> <stop stop-color="#033" offset="1"/> </linearGradient> <linearGradient id="a" x1="264.01" x2="262.51" y1="92.83" y2="194.67" gradientUnits="userSpaceOnUse"> <stop stop-color="#c30" offset="0"/> <stop stop-color="#fc0" offset=".18824"/> <stop stop-color="#fc0" offset=".47843"/> <stop stop-color="#c30" offset="1"/> </linearGradient> </defs> <rect class="fil0" width="600" height="400"/> <path class="fil1" d="m411 233.71 0.0011811-6.0295-0.0011811-0.0094488h0.0011811v-41.326l-0.0011811-31.43v-0.0011811l0.0011811-0.0082677v-6.0295c-0.67205-10.858-5.002-20.264-12.959-28.221-8.6858-8.6858-19.102-13.051-31.245-13.051h-62.671c-12.144 0-22.559 4.3642-31.246 13.051-8.687 8.687-13.051 19.103-13.051 31.246 0 8.6445 2.2476 16.423 6.698 23.424 11.584 18.044 24.741 17.525 44.023 22.384 37.324 9.4075 68.049 26.923 85.329 46.432 2.0303 2.7791 3.1618 5.0894 3.1618 9.1039 0 4.0158-2.4614 9.9189-6.6484 13.548 1.9571-1.4339 3.8409-3.0543 5.6492-4.8614 2.237-2.237 4.187-4.5886 5.8488-7.0535l0.061417-0.089764 0.12402-0.1878 0.012992-0.018898 0.11102-0.1689 0.085039-0.12874 0.037795-0.060236 0.12165-0.1878 0.03189-0.050787 0.089764-0.13937 0.10039-0.15945 0.018898-0.030709 0.11811-0.19016 0.049606-0.079134 0.068504-0.11102 0.11575-0.19134v-0.0011811l0.11575-0.19016 0.066142-0.11102 0.047244-0.081496 0.11339-0.19252 0.017716-0.029528 0.094488-0.16299 0.081496-0.14173 0.028346-0.050787 0.11102-0.1937 0.034252-0.062598 0.073228-0.13228 0.09685-0.17362 0.01063-0.02126 0.1063-0.19488 0.050787-0.092126 0.054331-0.10276 0.10512-0.19606 0.0047244-0.01063 0.098032-0.18661 0.064961-0.12402 0.036614-0.072047 0.10039-0.19724 0.022441-0.04252 0.077953-0.15591c2.5335-5.0539 3.985-10.54 4.35-16.454z"/> <path class="fil2" d="m333.71 89h-84.832c-10.858 0.67087-20.264 5.002-28.221 12.958-8.687 8.687-13.051 19.102-13.051 31.246v62.671c-0.0011811 12.144 4.3642 22.559 13.051 31.246 8.687 8.6858 19.102 13.051 31.246 13.051 8.6433 0 16.422-2.2476 23.424-6.6992 18.042-11.583 17.524-24.741 22.384-44.023 9.4075-37.323 26.922-68.048 46.432-85.328 2.778-2.0315 5.0894-3.1618 9.1039-3.163 4.0158 0.0011811 9.9177 2.4626 13.547 6.6496-1.4339-1.9583-3.0532-3.8421-4.8614-5.6504-2.237-2.2358-4.5886-4.187-7.0535-5.8488l-0.089764-0.060236-0.1878-0.1252-0.018898-0.012992-0.1689-0.11102-0.12756-0.083858-0.060236-0.038976-0.18898-0.12165-0.049606-0.030709-0.14055-0.090945-0.15945-0.099213-0.029528-0.020079-0.19016-0.11811-0.080315-0.049606-0.11102-0.067323-0.19016-0.11693h-0.0011811l-0.19134-0.11457-0.11102-0.066142-0.080315-0.048425-0.19252-0.1122-0.030709-0.018898-0.16181-0.094488-0.14291-0.081496-0.050787-0.028346-0.1937-0.11102-0.061417-0.033071-0.13228-0.074409-0.1748-0.09685-0.02126-0.01063-0.1937-0.1063-0.093307-0.050787-0.10276-0.054331-0.19606-0.10394-0.0094488-0.0059055-0.18661-0.09685-0.1252-0.064961-0.070866-0.037795-0.19842-0.10039-0.04252-0.02126-0.15472-0.079134c-5.0551-2.5335-10.54-3.985-16.455-4.35z"/> <path class="fil3" d="m189 166.29v6.0284l0.0011811 0.0094488h-0.0011811v72.756h0.0011811l-0.0011811 0.0094488v6.0295c0.67205 10.857 5.002 20.264 12.959 28.22 8.6858 8.687 19.101 13.051 31.245 13.051h62.671c12.144 0 22.559-4.3642 31.246-13.051 8.6858-8.687 13.051-19.102 13.051-31.246 0-8.6433-2.2476-16.422-6.6992-23.424-11.583-18.042-24.741-17.524-44.023-22.384-37.323-9.4075-68.048-26.923-85.328-46.432-2.0303-2.7791-3.1618-5.0894-3.1618-9.1039 0-4.0158 2.4614-9.9177 6.6484-13.547-1.9583 1.4327-3.8421 3.0532-5.6492 4.8614-2.237 2.237-4.187 4.5874-5.85 7.0535l-0.060236 0.089764-0.1252 0.1878-0.012992 0.017716-0.11102 0.17008-0.083858 0.12756-0.037795 0.060236-0.12284 0.18898-0.030709 0.049606-0.089764 0.13937-0.10039 0.15945-0.018898 0.030709-0.11929 0.19016-0.049606 0.080315-0.067323 0.10984-0.11693 0.19134-0.11457 0.19252-0.066142 0.11102-0.047244 0.080315-0.11339 0.19252-0.017716 0.029528-0.094488 0.16299-0.081496 0.14291-0.029528 0.050787-0.10984 0.1937-0.034252 0.061417-0.073228 0.13228-0.09685 0.1748-0.011811 0.020079-0.1063 0.19488-0.049606 0.093307-0.055512 0.10276-0.10394 0.19488-0.0059055 0.011811-0.09685 0.18543-0.064961 0.1252-0.036614 0.070866-0.10158 0.19842-0.02126 0.04252-0.077953 0.15472c-2.5335 5.0551-3.9862 10.54-4.3512 16.455z"/> <path class="fil4" d="m266.28 311h84.834c10.858-0.67087 20.264-5.002 28.221-12.958 8.6858-8.687 13.051-19.102 13.051-31.245v-26.375c-17.758-17.996-46.91-33.904-81.842-42.709-1.7504-0.44055-3.4512-0.8374-5.1047-1.2083-0.97205 4.3122-1.878 8.9658-3.1583 14.046-9.4075 37.323-26.923 68.048-46.432 85.328-2.7791 2.0315-5.0894 3.1618-9.1039 3.163-4.0158-0.0011811-9.9189-2.4626-13.547-6.6496 1.4327 1.9583 3.0532 3.8421 4.8614 5.6504 2.2358 2.2358 4.5874 4.187 7.0535 5.8488l0.088583 0.060236 0.18898 0.1252 0.017716 0.012992 0.1689 0.11102 0.12874 0.083858 0.060236 0.038976 0.18898 0.12165 0.049606 0.03189 0.13937 0.089764 0.16063 0.099213 0.029528 0.020079 0.19016 0.11811 0.080315 0.049606 0.10984 0.067323 0.19134 0.11693h0.0011811l0.19134 0.11457 0.10984 0.066142 0.081496 0.048425 0.19252 0.11339 0.030709 0.017716 0.16181 0.094488 0.14291 0.081496 0.050787 0.028346 0.1937 0.10984 0.061417 0.035433 0.13228 0.073228 0.1748 0.09685 0.020079 0.01063 0.19488 0.1063 0.093307 0.049606 0.10276 0.055512 0.19488 0.10512 0.01063 0.0047244 0.18661 0.09685 0.12402 0.066142 0.072047 0.036614 0.19724 0.10039 0.043701 0.02126 0.15472 0.079134c5.0551 2.5335 10.54 3.985 16.454 4.35z"/> </svg>